<svg t="1610084477092" class="icon" viewBox="0 0 1024 1024" version="1.1" xmlns="http://www.w3.org/2000/svg" p-id="14698" width="128" height="128"><path d="M978.672 111.92 911.088 44.48c-18.656-18.624-48.912-18.624-67.568 0l-101.344 101.152 135.136 134.864 101.344-101.152C997.344 160.736 997.344 130.544 978.672 111.92zM848 912 112 912 112 176l533.712 0 96-96L64 80C37.488 80 16 101.488 16 128l0 832c0 26.512 21.488 48 48 48l832 0c26.512 0 48-21.488 48-48L944 285.008l-96 96L848 912zM843.536 314.224l-135.12-134.864L303.008 583.968l135.136 134.864L843.536 314.224zM223.968 797.44l180.128-44.896-135.152-134.896L223.968 797.44z" fill="#d81e06" p-id="14699"></path></svg>